<?xml version="1.0" encoding="utf-8"?>
<!DOCTYPE svg PUBLIC "-//W3C//DTD SVG 1.1//EN" "http://www.w3.org/Graphics/SVG/1.1/DTD/svg11.dtd">
<svg version="1.1" xmlns="http://www.w3.org/2000/svg" xmlns:xlink="http://www.w3.org/1999/xlink" x="0px" y="0px"
	 viewBox="0 0 35.6 37.5" enable-background="new 0 0 35.6 37.5" xml:space="preserve">
<path d="M35.2,16c0.9-2.7,0.5-3.8-1.8-5.6c-1.4-1.1-2.5-2.3-3-4.2c-0.7-2.5-2.1-3.4-4.5-3.5c-1.9,0-3.7-0.4-5.1-1.7
	c-2-1.7-4.1-1.4-5.9,0c-1.7,1.3-3.5,1.7-5.6,1.7c-2.1,0-3.5,1.1-4.2,3c-0.6,1.7-1.5,3.1-3,4.2c-1.3,1-2.3,2.4-2,4.1
	c0.5,2.9,1.3,5.8,0,8c-0.2,2.5,0.7,3.7,2.1,4.7c1.5,1,2.3,2.4,2.8,4c0.9,2.7,2.3,3.7,5.1,3.7c1.7,0,3.3,0.4,4.7,1.5
	c2.3,1.8,3.2,1.8,5.6,0.1c1.5-1,3.1-1.6,4.9-1.6c2.6,0,4.3-1.1,5.1-3.6c0.6-1.9,1.6-3.4,3.2-4.6c1.8-1.3,2.4-3,1.6-5.3
	C34.7,19.5,34.6,17.8,35.2,16z M23.6,13.9c-0.1,0-0.2,0-0.2,0c-4.2-0.1-3.7,0-3.7,3.8c0,3,0,6.1,0,9.1c0,2.1-0.1,2.2-1.8,2.3
	c-1.7,0-1.9-0.1-1.9-2.2c0-3.4,0-6.9,0-10.3c0-2.6-0.1-2.7-2.7-2.7c-0.5,0-1,0-1.4,0c-1.1,0-1.5-0.5-1.5-1.6c0-1,0.3-1.7,1.5-1.7
	c2.1,0,4.2,0,6.2,0c0,0,0,0,0,0c1.9,0,3.8,0,5.8,0c1.2,0,1.8,0.4,1.8,1.7C25.4,13.6,24.7,14,23.6,13.9z"/>
</svg>
