<?xml version="1.0" standalone="no"?>
<!DOCTYPE svg PUBLIC "-//W3C//DTD SVG 20010904//EN"
 "http://www.w3.org/TR/2001/REC-SVG-20010904/DTD/svg10.dtd">
<svg version="1.0" xmlns="http://www.w3.org/2000/svg"
 width="640.000000pt" height="640.000000pt" viewBox="0 0 640.000000 640.000000"
 preserveAspectRatio="xMidYMid meet">
<metadata>
Created by potrace 1.11, written by Peter Selinger 2001-2013
</metadata>
<g transform="translate(0.000000,640.000000) scale(0.100000,-0.100000)"
fill="#000000" stroke="none">
<path d="M2883 5744 c-464 -56 -969 -275 -1323 -574 -204 -172 -423 -424 -547
-631 -198 -326 -325 -705 -364 -1077 -17 -168 -7 -526 20 -675 98 -550 331
-1007 702 -1377 142 -141 156 -155 254 -232 275 -218 666 -402 1026 -482 396
-88 868 -74 1259 39 403 116 770 329 1074 625 507 493 776 1129 776 1835 0
419 -85 785 -265 1146 -66 132 -166 300 -197 331 -10 10 -18 21 -18 24 0 17
-145 189 -244 289 -148 150 -254 239 -415 347 -324 217 -722 365 -1111 413
-153 19 -470 18 -627 -1z m523 -1304 c168 -42 350 -160 438 -283 96 -135 170
-339 183 -509 l6 -78 -142 0 -141 0 0 43 c0 66 -37 204 -77 287 -130 271 -488
367 -758 205 -33 -20 -73 -48 -89 -63 -81 -75 -159 -257 -172 -402 l-7 -70
-138 0 -139 0 0 49 c0 27 7 85 15 128 42 221 148 418 283 527 212 171 479 231
738 166z m713 -934 c15 -8 37 -28 47 -43 18 -27 19 -57 19 -733 0 -658 -1
-708 -18 -733 -9 -15 -29 -35 -44 -44 -25 -17 -84 -18 -924 -18 -892 0 -898 0
-926 21 -65 48 -63 18 -63 772 0 752 -2 733 62 772 32 20 48 20 926 20 760 0
897 -2 921 -14z"/>
<path d="M3082 3154 c-171 -85 -190 -326 -35 -439 l42 -30 0 -207 1 -208 110
0 110 0 1 208 0 207 42 30 c155 113 136 354 -35 439 -40 20 -67 26 -118 26
-51 0 -78 -6 -118 -26z"/>
</g>
</svg>
