<svg xmlns="http://www.w3.org/2000/svg"><symbol id="add" viewBox="0 0 24 24"><path d="M18.984 12.984h-6v6h-1.969v-6h-6v-1.969h6v-6h1.969v6h6v1.969z"/></symbol><symbol id="arrow_back" viewBox="0 0 24 24"><path d="M20.016 11.016v1.969H7.828l5.578 5.625L12 20.016 3.984 12 12 3.984l1.406 1.406-5.578 5.625h12.188z"/></symbol><symbol id="arrow_downward" viewBox="0 0 24 24"><path d="M20.016 12L12 20.016 3.984 12l1.453-1.406 5.578 5.578V3.984h1.969v12.188l5.625-5.578z"/></symbol><symbol id="arrow_forward" viewBox="0 0 24 24"><path d="M12 3.984L20.016 12 12 20.016l-1.406-1.406 5.578-5.625H3.984v-1.969h12.188l-5.578-5.625z"/></symbol><symbol id="arrow_upward" viewBox="0 0 24 24"><path d="M3.984 12L12 3.984 20.016 12l-1.453 1.406-5.578-5.578v12.188h-1.969V7.828l-5.625 5.578z"/></symbol><symbol id="calendar" viewBox="0 0 24 24"><path d="M18.984 20.016V9H5.015v11.016h13.969zm0-16.032C20.062 3.984 21 4.922 21 6v14.016c0 1.078-.938 1.969-2.016 1.969H5.015c-1.125 0-2.016-.891-2.016-1.969V6c0-1.078.891-2.016 2.016-2.016h.984V2.015h2.016v1.969h7.969V2.015H18v1.969h.984zm-1.968 7.032v1.969H15v-1.969h2.016zm-4.032 0v1.969h-1.969v-1.969h1.969zm-3.984 0v1.969H6.984v-1.969H9z"/></symbol><symbol id="check" viewBox="0 0 24 24"><path d="M9 16.172L19.594 5.578 21 6.984l-12 12-5.578-5.578L4.828 12z"/></symbol><symbol id="close" viewBox="0 0 24 24"><path d="M18.984 6.422L13.406 12l5.578 5.578-1.406 1.406L12 13.406l-5.578 5.578-1.406-1.406L10.594 12 5.016 6.422l1.406-1.406L12 10.594l5.578-5.578z"/></symbol><symbol id="facebook" viewBox="0 0 33 33"><path d="M17.996 32H12V16H8v-5.514l4-.002-.006-3.248C11.993 2.737 13.213 0 18.512 0h4.412v5.515h-2.757c-2.063 0-2.163.77-2.163 2.209l-.008 2.76h4.959l-.585 5.514L18 16l-.004 16z"/></symbol><symbol id="folder" viewBox="0 0 24 24"><path d="M9.984 3.984L12 6h8.016c1.078 0 1.969.938 1.969 2.016V18c0 1.078-.891 2.016-1.969 2.016H3.985c-1.078 0-1.969-.938-1.969-2.016V6c0-1.078.891-2.016 1.969-2.016h6z"/></symbol><symbol id="insert_comment" viewBox="0 0 24 24"><path d="M18 8.016V6H6v2.016h12zm0 3V9H6v2.016h12zm0 3V12H6v2.016h12zm2.016-12c1.078 0 1.969.891 1.969 1.969v18l-3.984-3.984H3.985c-1.078 0-1.969-.938-1.969-2.016v-12c0-1.078.891-1.969 1.969-1.969h16.031z"/></symbol><symbol id="location" viewBox="0 0 24 24"><path d="M12 11.484c1.359 0 2.484-1.125 2.484-2.484S13.359 6.516 12 6.516 9.516 7.641 9.516 9s1.125 2.484 2.484 2.484zm0-9.468A6.942 6.942 0 0 1 18.984 9c0 5.25-6.984 12.984-6.984 12.984S5.016 14.25 5.016 9A6.942 6.942 0 0 1 12 2.016z"/></symbol><symbol id="more_horiz" viewBox="0 0 24 24"><path d="M12 9.984c1.078 0 2.016.938 2.016 2.016s-.938 2.016-2.016 2.016S9.984 13.078 9.984 12 10.922 9.984 12 9.984zm6 0c1.078 0 2.016.938 2.016 2.016s-.938 2.016-2.016 2.016-2.016-.938-2.016-2.016.938-2.016 2.016-2.016zm-12 0c1.078 0 2.016.938 2.016 2.016S7.078 14.016 6 14.016 3.984 13.078 3.984 12 4.922 9.984 6 9.984z"/></symbol><symbol id="more_vert" viewBox="0 0 24 24"><path d="M12 15.984c1.078 0 2.016.938 2.016 2.016s-.938 2.016-2.016 2.016S9.984 19.078 9.984 18s.938-2.016 2.016-2.016zm0-6c1.078 0 2.016.938 2.016 2.016s-.938 2.016-2.016 2.016S9.984 13.078 9.984 12 10.922 9.984 12 9.984zm0-1.968c-1.078 0-2.016-.938-2.016-2.016S10.922 3.984 12 3.984s2.016.938 2.016 2.016S13.078 8.016 12 8.016z"/></symbol><symbol id="pencil" viewBox="0 0 24 24"><path d="M20.719 7.031l-1.828 1.828-3.75-3.75 1.828-1.828a1.02 1.02 0 0 1 1.406 0l2.344 2.344a1.02 1.02 0 0 1 0 1.406zM3 17.25L14.063 6.187l3.75 3.75L6.75 21H3v-3.75z"/></symbol><symbol id="people" viewBox="0 0 24 24"><path d="M15.984 12.984c2.344 0 7.031 1.172 7.031 3.516v2.484h-6V16.5c0-1.5-.797-2.625-1.969-3.469.328-.047.656-.047.938-.047zm-7.968 0C10.36 12.984 15 14.156 15 16.5v2.484H.984V16.5c0-2.344 4.688-3.516 7.031-3.516zm0-1.968c-1.641 0-3-1.359-3-3s1.359-3 3-3 2.953 1.359 2.953 3-1.313 3-2.953 3zm7.968 0c-1.641 0-3-1.359-3-3s1.359-3 3-3 3 1.359 3 3-1.359 3-3 3z"/></symbol><symbol id="person" viewBox="0 0 24 24"><path d="M12 14.016c2.672 0 8.016 1.313 8.016 3.984v2.016H3.985V18c0-2.672 5.344-3.984 8.016-3.984zM12 12c-2.203 0-3.984-1.781-3.984-3.984S9.797 3.985 12 3.985s3.984 1.828 3.984 4.031S14.203 12 12 12z"/></symbol><symbol id="tag" viewBox="0 0 24 24"><path d="M5.484 6.984c.844 0 1.5-.656 1.5-1.5s-.656-1.5-1.5-1.5-1.5.656-1.5 1.5.656 1.5 1.5 1.5zm15.938 4.594c.375.375.563.844.563 1.406s-.188 1.031-.563 1.406l-7.031 7.031c-.375.375-.844.563-1.406.563s-1.031-.188-1.406-.563l-9-9c-.375-.375-.563-.844-.563-1.406V3.984c0-1.078.891-1.969 1.969-1.969h7.031c.563 0 1.031.188 1.406.563z"/></symbol><symbol id="trending_up" viewBox="0 0 24 24"><path d="M15.984 6h6v6l-2.297-2.297-6.281 6.281L9.422 12l-6 6-1.406-1.406 7.406-7.406 3.984 3.984 4.875-4.875z"/></symbol><symbol id="trust-project" viewBox="0 0 35.6 37.5"><path d="M35.2 16c.9-2.7.5-3.8-1.8-5.6-1.4-1.1-2.5-2.3-3-4.2-.7-2.5-2.1-3.4-4.5-3.5-1.9 0-3.7-.4-5.1-1.7-2-1.7-4.1-1.4-5.9 0-1.7 1.3-3.5 1.7-5.6 1.7-2.1 0-3.5 1.1-4.2 3-.6 1.7-1.5 3.1-3 4.2-1.3 1-2.3 2.4-2 4.1.5 2.9 1.3 5.8 0 8-.2 2.5.7 3.7 2.1 4.7 1.5 1 2.3 2.4 2.8 4 .9 2.7 2.3 3.7 5.1 3.7 1.7 0 3.3.4 4.7 1.5 2.3 1.8 3.2 1.8 5.6.1 1.5-1 3.1-1.6 4.9-1.6 2.6 0 4.3-1.1 5.1-3.6.6-1.9 1.6-3.4 3.2-4.6 1.8-1.3 2.4-3 1.6-5.3-.5-1.4-.6-3.1 0-4.9zm-11.6-2.1h-.2c-4.2-.1-3.7 0-3.7 3.8v9.1c0 2.1-.1 2.2-1.8 2.3-1.7 0-1.9-.1-1.9-2.2V16.6c0-2.6-.1-2.7-2.7-2.7h-1.4c-1.1 0-1.5-.5-1.5-1.6 0-1 .3-1.7 1.5-1.7h12c1.2 0 1.8.4 1.8 1.7-.3 1.3-1 1.7-2.1 1.6z"/></symbol><symbol id="twitter" viewBox="0 0 33 33"><path d="M32 6.076a13.14 13.14 0 0 1-3.771 1.034 6.592 6.592 0 0 0 2.887-3.632 13.151 13.151 0 0 1-4.169 1.593 6.557 6.557 0 0 0-4.792-2.073 6.565 6.565 0 0 0-6.565 6.565c0 .515.058 1.016.17 1.496a18.64 18.64 0 0 1-13.532-6.86A6.536 6.536 0 0 0 1.339 7.5a6.563 6.563 0 0 0 2.921 5.465 6.54 6.54 0 0 1-2.974-.821l-.001.083a6.57 6.57 0 0 0 5.266 6.438 6.578 6.578 0 0 1-2.965.112 6.572 6.572 0 0 0 6.133 4.559 13.172 13.172 0 0 1-8.154 2.81c-.53 0-1.052-.031-1.566-.092a18.579 18.579 0 0 0 10.064 2.95c12.076 0 18.679-10.004 18.679-18.68 0-.285-.006-.568-.019-.849A13.354 13.354 0 0 0 32 6.076z"/></symbol></svg>